<svg width="28" height="26" viewBox="0 0 28 26" fill="none" xmlns="http://www.w3.org/2000/svg">
<path d="M25.2 5.99014H19.6V3.19014L16.8 0.390137H11.2L8.4 3.19014V5.99014H2.8C1.26 5.99014 0 7.25014 0 8.79014V15.7901C0 16.8401 0.56 17.7221 1.4 18.2121V22.7901C1.4 24.3441 2.646 25.5901 4.2 25.5901H23.8C25.354 25.5901 26.6 24.3441 26.6 22.7901V18.1981C27.426 17.7081 28 16.8121 28 15.7901V8.79014C28 7.25014 26.74 5.99014 25.2 5.99014ZM11.2 3.19014H16.8V5.99014H11.2V3.19014ZM2.8 8.79014H25.2V15.7901H18.2V11.5901H9.8V15.7901H2.8V8.79014ZM15.4 17.1901H12.6V14.3901H15.4V17.1901ZM23.8 22.7901H4.2V18.5901H9.8V19.9901H18.2V18.5901H23.8V22.7901Z" fill="#464646"/>
</svg>
