<svg width="36" height="36" viewBox="0 0 36 36" fill="none" xmlns="http://www.w3.org/2000/svg">
<g clip-path="url(#clip0_499_4489)">
<path fill-rule="evenodd" clip-rule="evenodd" d="M31.3873 6.85137C33.7302 9.90683 35 13.6497 35 17.5H17.5L17.5 17.5H30C30 14.7498 29.093 12.0763 27.4195 9.89383C25.746 7.71136 23.3994 6.14172 20.7434 5.42812C18.0874 4.71451 15.2701 4.89677 12.7282 5.94666C10.1862 6.99656 8.06147 8.85547 6.68314 11.2354C5.30481 13.6153 4.74983 16.3833 5.1042 19.1106C5.45857 21.8379 6.7025 24.3723 8.64327 26.3209C10.584 28.2695 13.1133 29.5237 15.8391 29.8892C18.565 30.2546 21.3352 29.7108 23.7207 28.3422L26.209 32.679C22.8694 34.5952 18.991 35.3564 15.1748 34.8448C11.3586 34.3332 7.81766 32.5774 5.1006 29.8493C2.38353 27.1212 0.642025 23.5731 0.145906 19.7549C-0.350213 15.9367 0.426752 12.0614 2.35642 8.72953C4.28609 5.39766 7.26073 2.79518 10.8195 1.32533C14.3782 -0.144514 18.3223 -0.399682 22.0408 0.599368C25.7592 1.59842 29.0444 3.79591 31.3873 6.85137Z" fill="#F31414"/>
<path fill-rule="evenodd" clip-rule="evenodd" d="M25.4769 33.1664C23.3513 34.2608 21.0239 34.908 18.6385 35.0681L17.4665 17.6074L17.6671 17.5812L17.4666 17.6075L18.2981 29.996C19.9912 29.8823 21.6429 29.4229 23.1515 28.646C24.66 27.869 25.9933 26.7912 27.069 25.4789C28.1448 24.1666 28.9401 22.6477 29.4059 21.0161C29.8712 19.3864 29.9979 17.6789 29.7782 15.9985L34.819 15.3397C35.1288 17.7104 34.9495 20.1194 34.2923 22.4181C33.6351 24.7168 32.5138 26.8565 30.9976 28.7051C29.4815 30.5537 27.6026 32.072 25.4769 33.1664ZM17.6671 17.5812L29.7782 15.9985C29.778 15.9964 29.7777 15.9943 29.7774 15.9922L17.6671 17.5812Z" fill="#D7D7D7"/>
</g>
<defs>
<clipPath id="clip0_499_4489">
<rect width="36" height="36" fill="white"/>
</clipPath>
</defs>
</svg>
