<svg width="71" height="72" viewBox="0 0 71 72" fill="none" xmlns="http://www.w3.org/2000/svg">
<g clip-path="url(#clip0_510_4486)">
<g opacity="0.2">
<mask id="path-1-inside-1_510_4486" fill="white">
<path d="M70.9998 37.8001C70.9998 56.6882 55.9006 72.0001 37.2748 72.0001C18.649 72.0001 3.5498 56.6882 3.5498 37.8001C3.5498 18.912 18.649 3.6001 37.2748 3.6001C55.9006 3.6001 70.9998 18.912 70.9998 37.8001ZM7.93405 37.8001C7.93405 54.2328 21.0704 67.5541 37.2748 67.5541C53.4793 67.5541 66.6156 54.2328 66.6156 37.8001C66.6156 21.3674 53.4793 8.0461 37.2748 8.0461C21.0704 8.0461 7.93405 21.3674 7.93405 37.8001Z"/>
</mask>
<path d="M70.9998 37.8001C70.9998 56.6882 55.9006 72.0001 37.2748 72.0001C18.649 72.0001 3.5498 56.6882 3.5498 37.8001C3.5498 18.912 18.649 3.6001 37.2748 3.6001C55.9006 3.6001 70.9998 18.912 70.9998 37.8001ZM7.93405 37.8001C7.93405 54.2328 21.0704 67.5541 37.2748 67.5541C53.4793 67.5541 66.6156 54.2328 66.6156 37.8001C66.6156 21.3674 53.4793 8.0461 37.2748 8.0461C21.0704 8.0461 7.93405 21.3674 7.93405 37.8001Z" stroke="#012E61" stroke-width="32" stroke-linecap="round" mask="url(#path-1-inside-1_510_4486)"/>
</g>
<mask id="path-2-inside-2_510_4486" fill="white">
<path d="M68.8077 37.8001C70.0184 37.8001 71.007 38.7826 70.9306 39.9908C70.4824 47.0737 67.8696 53.8603 63.4284 59.3924C58.531 65.4926 51.7096 69.6943 44.1138 71.2895C36.518 72.8847 28.6121 71.7758 21.7284 68.1496C14.8448 64.5235 9.4042 58.6018 6.32353 51.3826C3.24286 44.1633 2.71044 36.0877 4.816 28.5168C6.92156 20.9459 11.5364 14.3425 17.8827 9.81938C24.2291 5.29625 31.9191 3.12993 39.6567 3.6855C46.6727 4.18926 53.339 6.90298 58.7369 11.4192C59.6631 12.1941 59.702 13.5812 58.8815 14.4672V14.4672C58.0446 15.371 56.6349 15.4082 55.681 14.6289C51.0327 10.8316 45.3363 8.55043 39.347 8.1204C32.6153 7.63705 25.9251 9.52175 20.4037 13.4569C14.8824 17.392 10.8675 23.137 9.03564 29.7237C7.20381 36.3104 7.66701 43.3361 10.3472 49.6168C13.0274 55.8976 17.7607 61.0495 23.7495 64.2042C29.7383 67.3589 36.6164 68.3237 43.2247 66.9359C49.8331 65.5481 55.7677 61.8926 60.0284 56.5854C63.8328 51.8466 66.095 46.0496 66.536 39.9905C66.6238 38.783 67.597 37.8001 68.8077 37.8001V37.8001Z"/>
</mask>
<path d="M68.8077 37.8001C70.0184 37.8001 71.007 38.7826 70.9306 39.9908C70.4824 47.0737 67.8696 53.8603 63.4284 59.3924C58.531 65.4926 51.7096 69.6943 44.1138 71.2895C36.518 72.8847 28.6121 71.7758 21.7284 68.1496C14.8448 64.5235 9.4042 58.6018 6.32353 51.3826C3.24286 44.1633 2.71044 36.0877 4.816 28.5168C6.92156 20.9459 11.5364 14.3425 17.8827 9.81938C24.2291 5.29625 31.9191 3.12993 39.6567 3.6855C46.6727 4.18926 53.339 6.90298 58.7369 11.4192C59.6631 12.1941 59.702 13.5812 58.8815 14.4672V14.4672C58.0446 15.371 56.6349 15.4082 55.681 14.6289C51.0327 10.8316 45.3363 8.55043 39.347 8.1204C32.6153 7.63705 25.9251 9.52175 20.4037 13.4569C14.8824 17.392 10.8675 23.137 9.03564 29.7237C7.20381 36.3104 7.66701 43.3361 10.3472 49.6168C13.0274 55.8976 17.7607 61.0495 23.7495 64.2042C29.7383 67.3589 36.6164 68.3237 43.2247 66.9359C49.8331 65.5481 55.7677 61.8926 60.0284 56.5854C63.8328 51.8466 66.095 46.0496 66.536 39.9905C66.6238 38.783 67.597 37.8001 68.8077 37.8001V37.8001Z" stroke="#F31414" stroke-width="32" stroke-linecap="round" mask="url(#path-2-inside-2_510_4486)"/>
</g>
<defs>
<clipPath id="clip0_510_4486">
<rect width="71" height="72" fill="white"/>
</clipPath>
</defs>
</svg>
