<svg width="25" height="23" viewBox="0 0 25 23" fill="none" xmlns="http://www.w3.org/2000/svg">
<path d="M4.25 0C3.91848 0 3.60054 0.131696 3.36612 0.366117C3.1317 0.600537 3 0.918479 3 1.25V18.75C3 19.0815 3.1317 19.3995 3.36612 19.6339C3.60054 19.8683 3.91848 20 4.25 20H8V15.625C8 15.4592 8.06585 15.3003 8.18306 15.1831C8.30027 15.0658 8.45924 15 8.625 15H12.375C12.5408 15 12.6997 15.0658 12.8169 15.1831C12.9342 15.3003 13 15.4592 13 15.625V20H16.75C17.0815 20 17.3995 19.8683 17.6339 19.6339C17.8683 19.3995 18 19.0815 18 18.75V1.25C18 0.918479 17.8683 0.600537 17.6339 0.366117C17.3995 0.131696 17.0815 0 16.75 0L4.25 0ZM5.5 3.125C5.5 2.95924 5.56585 2.80027 5.68306 2.68306C5.80027 2.56585 5.95924 2.5 6.125 2.5H7.375C7.54076 2.5 7.69973 2.56585 7.81694 2.68306C7.93415 2.80027 8 2.95924 8 3.125V4.375C8 4.54076 7.93415 4.69973 7.81694 4.81694C7.69973 4.93415 7.54076 5 7.375 5H6.125C5.95924 5 5.80027 4.93415 5.68306 4.81694C5.56585 4.69973 5.5 4.54076 5.5 4.375V3.125ZM9.25 3.125C9.25 2.95924 9.31585 2.80027 9.43306 2.68306C9.55027 2.56585 9.70924 2.5 9.875 2.5H11.125C11.2908 2.5 11.4497 2.56585 11.5669 2.68306C11.6842 2.80027 11.75 2.95924 11.75 3.125V4.375C11.75 4.54076 11.6842 4.69973 11.5669 4.81694C11.4497 4.93415 11.2908 5 11.125 5H9.875C9.70924 5 9.55027 4.93415 9.43306 4.81694C9.31585 4.69973 9.25 4.54076 9.25 4.375V3.125ZM13.625 2.5H14.875C15.0408 2.5 15.1997 2.56585 15.3169 2.68306C15.4342 2.80027 15.5 2.95924 15.5 3.125V4.375C15.5 4.54076 15.4342 4.69973 15.3169 4.81694C15.1997 4.93415 15.0408 5 14.875 5H13.625C13.4592 5 13.3003 4.93415 13.1831 4.81694C13.0658 4.69973 13 4.54076 13 4.375V3.125C13 2.95924 13.0658 2.80027 13.1831 2.68306C13.3003 2.56585 13.4592 2.5 13.625 2.5ZM5.5 6.875C5.5 6.70924 5.56585 6.55027 5.68306 6.43306C5.80027 6.31585 5.95924 6.25 6.125 6.25H7.375C7.54076 6.25 7.69973 6.31585 7.81694 6.43306C7.93415 6.55027 8 6.70924 8 6.875V8.125C8 8.29076 7.93415 8.44973 7.81694 8.56694C7.69973 8.68415 7.54076 8.75 7.375 8.75H6.125C5.95924 8.75 5.80027 8.68415 5.68306 8.56694C5.56585 8.44973 5.5 8.29076 5.5 8.125V6.875ZM9.875 6.25H11.125C11.2908 6.25 11.4497 6.31585 11.5669 6.43306C11.6842 6.55027 11.75 6.70924 11.75 6.875V8.125C11.75 8.29076 11.6842 8.44973 11.5669 8.56694C11.4497 8.68415 11.2908 8.75 11.125 8.75H9.875C9.70924 8.75 9.55027 8.68415 9.43306 8.56694C9.31585 8.44973 9.25 8.29076 9.25 8.125V6.875C9.25 6.70924 9.31585 6.55027 9.43306 6.43306C9.55027 6.31585 9.70924 6.25 9.875 6.25ZM13 6.875C13 6.70924 13.0658 6.55027 13.1831 6.43306C13.3003 6.31585 13.4592 6.25 13.625 6.25H14.875C15.0408 6.25 15.1997 6.31585 15.3169 6.43306C15.4342 6.55027 15.5 6.70924 15.5 6.875V8.125C15.5 8.29076 15.4342 8.44973 15.3169 8.56694C15.1997 8.68415 15.0408 8.75 14.875 8.75H13.625C13.4592 8.75 13.3003 8.68415 13.1831 8.56694C13.0658 8.44973 13 8.29076 13 8.125V6.875ZM6.125 10H7.375C7.54076 10 7.69973 10.0658 7.81694 10.1831C7.93415 10.3003 8 10.4592 8 10.625V11.875C8 12.0408 7.93415 12.1997 7.81694 12.3169C7.69973 12.4342 7.54076 12.5 7.375 12.5H6.125C5.95924 12.5 5.80027 12.4342 5.68306 12.3169C5.56585 12.1997 5.5 12.0408 5.5 11.875V10.625C5.5 10.4592 5.56585 10.3003 5.68306 10.1831C5.80027 10.0658 5.95924 10 6.125 10ZM9.25 10.625C9.25 10.4592 9.31585 10.3003 9.43306 10.1831C9.55027 10.0658 9.70924 10 9.875 10H11.125C11.2908 10 11.4497 10.0658 11.5669 10.1831C11.6842 10.3003 11.75 10.4592 11.75 10.625V11.875C11.75 12.0408 11.6842 12.1997 11.5669 12.3169C11.4497 12.4342 11.2908 12.5 11.125 12.5H9.875C9.70924 12.5 9.55027 12.4342 9.43306 12.3169C9.31585 12.1997 9.25 12.0408 9.25 11.875V10.625ZM13.625 10H14.875C15.0408 10 15.1997 10.0658 15.3169 10.1831C15.4342 10.3003 15.5 10.4592 15.5 10.625V11.875C15.5 12.0408 15.4342 12.1997 15.3169 12.3169C15.1997 12.4342 15.0408 12.5 14.875 12.5H13.625C13.4592 12.5 13.3003 12.4342 13.1831 12.3169C13.0658 12.1997 13 12.0408 13 11.875V10.625C13 10.4592 13.0658 10.3003 13.1831 10.1831C13.3003 10.0658 13.4592 10 13.625 10Z" fill="#5E6368"/>
</svg>
