<svg width="28" height="28" viewBox="0 0 28 28" fill="none" xmlns="http://www.w3.org/2000/svg">
<g clip-path="url(#clip0_225_5673)">
<path d="M14 28C6.28015 28 0 21.7195 0 14C0 6.28048 6.28015 0 14 0C21.7199 0 28 6.28048 28 14C28 21.7195 21.7199 28 14 28Z" fill="#D7EBFF"/>
<path d="M28 14C28 6.28048 21.7199 0 14 0V28C21.7199 28 28 21.7195 28 14Z" fill="#C4E2FF"/>
<path d="M14.0001 26.1735C7.28721 26.1735 1.82617 20.7122 1.82617 13.9996C1.82617 7.287 7.28721 1.82568 14.0001 1.82568C20.713 1.82568 26.174 7.28705 26.174 13.9996C26.174 20.7122 20.713 26.1735 14.0001 26.1735Z" fill="#D48888"/>
<path d="M26.1739 14.0001C26.1739 7.28754 20.7129 1.82617 14 1.82617V26.174C20.7129 26.174 26.1739 20.7127 26.1739 14.0001Z" fill="#B3353D"/>
<path d="M10.1816 10.1816L19.0907 19.0907" stroke="white" stroke-width="3" stroke-linecap="round"/>
<path d="M10.1816 19.0908L19.0907 10.1817" stroke="white" stroke-width="3" stroke-linecap="round"/>
</g>
<defs>
<clipPath id="clip0_225_5673">
<rect width="28" height="28" fill="white"/>
</clipPath>
</defs>
</svg>
