<svg width="30" height="30" viewBox="0 0 30 30" fill="none" xmlns="http://www.w3.org/2000/svg">
<g clip-path="url(#clip0_225_5662)">
<path d="M15 30C6.72873 30 0 23.2709 0 15C0 6.72908 6.72873 0 15 0C23.2713 0 30 6.72908 30 15C30 23.2709 23.2713 30 15 30Z" fill="#D7EBFF"/>
<path d="M30 15C30 6.72908 23.2713 0 15 0V30C23.2713 30 30 23.2709 30 15Z" fill="#C4E2FF"/>
<path d="M15.0005 28.043C7.80814 28.043 1.95703 22.1916 1.95703 14.9996C1.95703 7.80746 7.80814 1.95605 15.0005 1.95605C22.1929 1.95605 28.044 7.80752 28.044 14.9996C28.044 22.1916 22.1929 28.043 15.0005 28.043Z" fill="#88CC2A"/>
<path d="M28.0435 15C28.0435 7.80801 22.1924 1.95654 15 1.95654V28.0435C22.1924 28.0435 28.0435 22.1921 28.0435 15Z" fill="#7FB335"/>
<path d="M13.6951 20.8697C13.1945 20.8697 12.6939 20.6786 12.3117 20.2965L8.28025 16.265C7.51596 15.501 7.51596 14.2623 8.28025 13.4983C9.04455 12.734 10.2826 12.734 11.0469 13.4983L13.6951 16.1462L19.278 10.5635C20.0423 9.79916 21.2804 9.79916 22.0447 10.5635C22.809 11.3274 22.809 12.5661 22.0447 13.3301L15.0784 20.2965C14.6963 20.6786 14.1957 20.8697 13.6951 20.8697Z" fill="white"/>
<path d="M19.2786 10.5635L15 14.8418V20.3609C15.0255 20.3378 15.0544 20.321 15.079 20.2964L22.0453 13.3301C22.8096 12.5661 22.8096 11.3274 22.0453 10.5634C21.281 9.79917 20.0429 9.79917 19.2786 10.5635Z" fill="#EDF0F2"/>
</g>
<defs>
<clipPath id="clip0_225_5662">
<rect width="30" height="30" fill="white"/>
</clipPath>
</defs>
</svg>
