<svg width="104" height="104" viewBox="0 0 104 104" fill="none" xmlns="http://www.w3.org/2000/svg">
    <g clip-path="url(#6ahdust2aa)">
        <rect width="104" height="104" rx="28" fill="#fff"/>
        <mask id="1h8gu6aw1b" style="mask-type:luminance" maskUnits="userSpaceOnUse" x="0" y="0" width="104" height="104">
            <path d="M103.886 0H0v103.888h103.886V0z" fill="#fff"/>
        </mask>
        <g mask="url(#1h8gu6aw1b)">
            <path d="M101.415 76.275c0 13.733-11.133 24.866-24.865 24.866H28.389c-13.732 0-24.865-11.133-24.865-24.866V28.113c0-13.732 11.133-24.864 24.865-24.864H76.55c13.732 0 24.865 11.132 24.865 24.864v48.162zM78.025.251H26.913C12.341.251.527 12.066.527 26.639v51.11c0 14.575 11.814 26.389 26.386 26.389h51.112c14.573 0 26.387-11.814 26.387-26.388V26.639c0-14.573-11.814-26.388-26.387-26.388z" fill="#B4B4B3"/>
            <path d="M50.016 45.913a3.256 3.256 0 0 1 2.288-.935h.002c.923 0 1.706.347 2.27.91.563.567.909 1.353.91 2.282 0 .9-.356 1.703-.932 2.287a3.14 3.14 0 0 1-2.246.94h-.005c-1.718.01-3.232-1.5-3.233-3.235v-.021c0-.865.358-1.65.946-2.228zm-6.572 21.83c.117-1.796.851-3.347 2.026-4.78 1.663-2.025 4.222-3.165 6.86-3.165.909 0 1.826.136 2.718.414 3.313 1.026 5.848 4.144 6.124 7.53h8.33c-.307-4.393-2.04-8.21-5.18-11.311-.72-.715-1.508-1.406-2.431-1.959h-.002l.045-.081c1.258-2.017 1.85-4.2 1.85-6.317.006-5.092-3.427-9.816-8.973-11.126a11.12 11.12 0 0 0-2.558-.3c-3.035 0-5.875 1.252-7.963 3.29-2.088 2.037-3.433 4.88-3.448 8.055v-.002.07c-.002 2.295.578 4.456 1.877 6.382l.01.016c-.024.019-.04.034-.073.055-4.2 2.886-6.67 6.962-7.44 11.973-.077.5-.137.894-.156 1.255h8.384z" fill="#DC9756"/>
            <path d="M52.47 79.16c-14.893 0-26.966-12.072-26.966-26.965 0-14.892 12.073-26.964 26.965-26.964s26.966 12.072 26.966 26.964c0 14.893-12.074 26.966-26.966 26.966zm35.533-26.965c0-19.624-15.908-35.533-35.534-35.533-19.625 0-35.533 15.909-35.533 35.533 0 19.625 15.908 35.535 35.533 35.535 3.49 0 6.857-.512 10.042-1.449l15.068 17.858h.447c4.028 0 7.83-.929 11.246-2.543l-16.96-19.919c9.465-6.383 15.691-17.205 15.691-29.482z" fill="#012E61"/>
        </g>
    </g>
    <defs>
        <clipPath id="6ahdust2aa">
            <rect width="104" height="104" rx="28" fill="#fff"/>
        </clipPath>
    </defs>
</svg>
