<svg width="209" height="57" viewBox="0 0 209 57" fill="none" xmlns="http://www.w3.org/2000/svg">
<path d="M4.66832 0H26.6768C26.6768 2.6031 24.5863 4.71294 22.0084 4.71294H15.8947V30.2009C15.8947 33.0518 13.6059 35.3631 10.782 35.3631V4.71294H0C0 2.10984 2.09043 0 4.66832 0Z" fill="#012E61"/>
<path d="M26.6765 9.16036H21.8415V35.3619H26.6765V9.16036Z" fill="#012E61"/>
<path d="M36.3453 35.3631H31.5103V8.48804H36.2342V15.95H36.7341C38.1795 11.2371 41.5141 8.48804 46.1269 8.48804C51.2396 8.48804 53.741 11.5735 54.2409 16.3431H54.7408C55.964 11.5175 59.0203 8.48804 64.1891 8.48804C69.969 8.48804 72.692 12.3031 72.692 18.0261V35.3631H67.857V19.2043C67.857 15.6135 66.3011 12.9206 62.2438 12.9206C57.5199 12.9206 54.5186 15.8939 54.5186 20.3825V35.3631H49.6837V19.2043C49.6837 15.6135 48.1277 12.9206 44.0705 12.9206C39.4577 12.9206 36.3453 15.8939 36.3453 20.3825V35.3631Z" fill="#012E61"/>
<path d="M80.0252 19.5411H95.1972C94.975 14.5477 92.6964 11.7421 87.917 11.7421C83.3598 11.7421 80.5807 14.3234 80.0252 19.5411ZM75.1347 21.8415C75.1347 13.0891 80.1918 7.87089 88.0281 7.87089C95.8088 7.87089 99.6989 12.696 99.6989 19.9336C99.6989 20.7193 99.6434 21.8975 99.5323 23.0758H79.9696C80.3585 28.4062 83.1376 31.3234 88.1392 31.3234C92.8075 31.3234 94.419 28.967 95.2528 26.0497L99.4767 27.2279C98.1985 32.2213 94.8639 35.3634 88.1392 35.3634C80.0807 35.3634 75.1347 30.5383 75.1347 21.8415Z" fill="#012E61"/>
<path d="M108.162 23.4597C108.162 13.6275 116.057 5.65742 125.796 5.65742C135.535 5.65742 143.43 13.6275 143.43 23.4597C143.43 33.2919 135.535 41.262 125.796 41.262C116.057 41.262 108.162 33.2919 108.162 23.4597ZM138.772 42.9237C144.962 38.7092 149.033 31.5648 149.033 23.4597C149.033 10.5037 138.63 0.000285961 125.796 0.000285961C112.963 0.000285961 102.559 10.5037 102.559 23.4597C102.559 36.4157 112.963 46.9191 125.796 46.9191C128.078 46.9191 130.28 46.5815 132.363 45.9629L139.503 55.5965C140.651 57.1444 142.824 57.4603 144.357 56.3021C145.89 55.1438 146.203 52.9499 145.056 51.402L138.772 42.9237Z" fill="#012E61"/>
<path d="M21.8413 4.71294L22.0084 4.71294C24.5863 4.71294 26.6768 2.6031 26.6768 0H21.8413V4.71294Z" fill="#DC9756"/>
<path d="M163.953 14.5897V20.5919H167.768C170.387 20.5919 171.229 19.6511 171.229 17.5905C171.229 15.396 170.12 14.5897 167.636 14.5897H163.953ZM166.881 26.4596H163.953V34.7461H155.967V7.87105H168.212C175.223 7.87105 179.127 10.8719 179.127 17.3221C179.127 21.2637 177.441 23.8164 174.601 25.2052L180.679 34.2534V34.7461H171.407L166.881 26.4596Z" fill="#DC9756"/>
<path d="M201.013 34.7461V24.9814H192.14V34.7461H184.154V7.87099H192.14V17.7701H201.013V7.87099H209V34.7461H201.013Z" fill="#DC9756"/>
<path d="M11.3134 42.3666H10.7818V46.8375H11.3134V42.3666Z" fill="#DC9756"/>
<path d="M14.375 44.445C14.0724 43.9529 13.7771 43.3566 13.556 42.8725H13.3859C13.4302 43.4986 13.4523 44.3855 13.4523 45.0562V46.837H12.9359V42.3661H13.7328L15.0246 44.4674C15.3936 45.0854 15.7479 45.7635 15.9695 46.2407H16.1169C16.08 45.6444 16.0506 44.8096 16.0506 44.1469V42.3661H16.5601V46.837H15.8437L14.375 44.445Z" fill="#DC9756"/>
<path d="M17.9004 44.5941C17.9004 43.1858 18.6753 42.284 19.9971 42.284C21.1115 42.284 21.7979 42.9249 21.96 43.9458L21.4583 44.0499C21.2883 43.2305 20.8235 42.7681 19.9971 42.7681C18.9337 42.7681 18.4321 43.4983 18.4321 44.5941C18.4321 45.7266 18.9337 46.4419 19.9818 46.4419C20.8677 46.4419 21.3178 45.9652 21.4805 45.1154L21.9895 45.2196C21.8273 46.2553 21.1409 46.9191 19.9818 46.9191C18.6384 46.9191 17.9004 46.0024 17.9004 44.5941Z" fill="#DC9756"/>
<path d="M26.3489 45.138V42.3661H26.8879V45.1603C26.8879 46.3077 26.2825 46.9188 25.1455 46.9188C24.0011 46.9188 23.33 46.3225 23.33 45.1603V42.3661H23.8611V45.0934C23.8611 45.8756 24.1638 46.4341 25.1455 46.4341C26.0756 46.4341 26.3489 45.9128 26.3489 45.138Z" fill="#DC9756"/>
<path d="M29.0401 44.8098V46.3972H30.3829C31.0625 46.3972 31.372 46.0699 31.372 45.6001C31.372 45.1005 31.1068 44.8098 30.3387 44.8098H29.0401ZM29.0401 42.8127V44.3852H30.2361C30.7672 44.3852 31.151 44.1695 31.151 43.5727C31.151 43.0662 30.8999 42.8127 30.2803 42.8127H29.0401ZM28.5085 42.3664H30.2503C31.2252 42.3664 31.6753 42.7538 31.6753 43.5057C31.6753 44.0797 31.3499 44.415 30.8188 44.542V44.609C31.5421 44.6908 31.9037 45.0113 31.9037 45.6298C31.9037 46.3377 31.4684 46.8367 30.4056 46.8367H28.5085V42.3664Z" fill="#DC9756"/>
<path d="M33.9162 45.0633H35.6801L35.4659 44.5122C35.259 43.9755 35.0379 43.3271 34.8905 42.843H34.7205C34.5584 43.3346 34.3368 43.9681 34.1225 44.5122L33.9162 45.0633ZM35.8422 45.4885H33.7535L33.2439 46.8367H32.6834L34.462 42.3658H35.1564L36.9277 46.8367H36.3592L35.8422 45.4885Z" fill="#DC9756"/>
<path d="M37.0286 42.3661H40.5423V42.8651H39.0516V46.837H38.5199V42.8651H37.0286V42.3661Z" fill="#DC9756"/>
<path d="M41.7431 42.3661H44.7251V42.8502H42.2821V44.3186H44.4667V44.7952H42.2821V46.3529H44.7251V46.837H41.7431V42.3661Z" fill="#DC9756"/>
<path d="M49.2251 45.138V42.3661H49.7642V45.1603C49.7642 46.3077 49.1588 46.9188 48.0217 46.9188C46.8773 46.9188 46.2062 46.3225 46.2062 45.1603V42.3661H46.7373V45.0934C46.7373 45.8756 47.04 46.4341 48.0217 46.4341C48.9519 46.4341 49.2251 45.9128 49.2251 45.138Z" fill="#DC9756"/>
<path d="M51.9164 42.835V44.5042H53.0455C53.7171 44.5042 54.1082 44.221 54.1082 43.655C54.1082 43.1108 53.8503 42.835 53.0455 42.835H51.9164ZM52.957 44.974H51.9164V46.8367H51.3773V42.3658H53.097C54.1819 42.3658 54.6399 42.8499 54.6399 43.6476C54.6399 44.348 54.2482 44.8098 53.5034 44.9363L54.8984 46.7548V46.8367H54.2857L52.957 44.974Z" fill="#DC9756"/>
<path d="M58.7916 42.8279V46.3752H59.8986C61.1167 46.3752 61.5962 45.6822 61.5962 44.5789C61.5962 43.387 61.0651 42.8279 59.847 42.8279H58.7916ZM58.2599 42.3661H59.9207C61.4046 42.3661 62.1279 43.1483 62.1279 44.5789C62.1279 45.9947 61.3014 46.837 59.9428 46.837H58.2599V42.3661Z" fill="#DC9756"/>
<path d="M63.461 42.3661H66.4431V42.8502H64.0001V44.3186H66.1846V44.7952H64.0001V46.3529H66.4431V46.837H63.461V42.3661Z" fill="#DC9756"/>
<path d="M69.5173 42.3661H73.0304V42.8651H71.5397V46.837H71.008V42.8651H69.5173V42.3661Z" fill="#DC9756"/>
<path d="M74.3644 45.0633H76.1283L75.9141 44.5122C75.7072 43.9755 75.4861 43.3271 75.3388 42.843H75.1687C75.0066 43.3346 74.785 43.9681 74.5707 44.5122L74.3644 45.0633ZM76.2905 45.4885H74.2017L73.6922 46.8367H73.1316L74.9103 42.3658H75.6046L77.3759 46.8367H76.8074L76.2905 45.4885Z" fill="#DC9756"/>
<path d="M79.0044 46.3449H81.1373V46.837H78.4727V42.3661H79.0044V46.3449Z" fill="#DC9756"/>
<path d="M82.3832 42.3661H85.3652V42.8502H82.9222V44.3186H85.1067V44.7952H82.9222V46.3529H85.3652V46.837H82.3832V42.3661Z" fill="#DC9756"/>
<path d="M88.2778 44.445C87.9751 43.9529 87.6798 43.3566 87.4587 42.8725H87.2887C87.3329 43.4986 87.355 44.3855 87.355 45.0562V46.837H86.8386V42.3661H87.6356L88.9274 44.4674C89.2964 45.0854 89.6506 45.7635 89.8717 46.2407H90.0196C89.9828 45.6444 89.9533 44.8096 89.9533 44.1469V42.3661H90.4629V46.837H89.7464L88.2778 44.445Z" fill="#DC9756"/>
<path d="M91.6622 42.3661H95.176V42.8651H93.6852V46.837H93.1535V42.8651H91.6622V42.3661Z" fill="#DC9756"/>
<path d="M95.9268 45.4135L96.4358 45.302C96.5611 46.0544 96.9896 46.4647 97.8387 46.4647C98.6135 46.4647 98.9451 46.1512 98.9451 45.6819C98.9451 45.2052 98.6356 44.9741 97.7276 44.8098C96.5242 44.5941 96.1331 44.1397 96.1331 43.4914C96.1331 42.7612 96.6574 42.284 97.7055 42.284C98.7535 42.284 99.1894 42.8059 99.3663 43.6104L98.8346 43.722C98.6872 43.0737 98.4214 42.7389 97.6828 42.7389C96.9896 42.7389 96.6574 43.0147 96.6574 43.4611C96.6574 43.8714 96.8938 44.1472 97.905 44.348C99.152 44.5867 99.4768 45.0261 99.4768 45.6447C99.4768 46.4047 98.9973 46.9191 97.8234 46.9191C96.6132 46.9111 96.0521 46.3154 95.9268 45.4135Z" fill="#DC9756"/>
<path d="M89.7742 0.000171358L93.6683 2.62731L86.5184 6.01323L89.7742 0.000171358Z" fill="#DC9756"/>
<path d="M124.191 19.3124C124.576 18.9313 125.104 18.695 125.688 18.6944H125.689C126.293 18.6955 126.804 18.9233 127.174 19.2964C127.542 19.67 127.768 20.1891 127.769 20.8025C127.769 21.3959 127.536 21.9264 127.159 22.3121C126.782 22.6972 126.267 22.9324 125.691 22.9329H125.687C124.564 22.9392 123.574 21.943 123.573 20.7968V20.783C123.574 20.2125 123.807 19.6941 124.191 19.3124ZM119.894 33.7236C119.97 32.5385 120.45 31.5153 121.219 30.5683C122.306 29.2315 123.98 28.4796 125.705 28.4796C126.299 28.4796 126.899 28.5689 127.483 28.7526C129.649 29.4301 131.307 31.4879 131.487 33.7236H136.935C136.733 30.8235 135.601 28.3039 133.547 26.2559C133.076 25.7844 132.562 25.3277 131.957 24.9632L131.956 24.9627L131.986 24.9094C132.808 23.5784 133.195 22.1375 133.195 20.739C133.199 17.3771 130.954 14.259 127.327 13.3938C126.766 13.2593 126.206 13.1952 125.654 13.1952C123.67 13.1958 121.812 14.0221 120.448 15.368C119.082 16.7127 118.202 18.5891 118.193 20.6852V20.684V20.7304C118.191 22.2457 118.57 23.6728 119.42 24.9443C119.423 24.9484 119.424 24.9506 119.427 24.9546C119.411 24.9667 119.4 24.9764 119.379 24.9907C116.632 26.8962 115.017 29.5875 114.513 32.895C114.463 33.2257 114.423 33.4855 114.411 33.7236H119.894Z" fill="#DC9756"/>
</svg>
