<svg width="20" height="20" viewBox="0 0 20 20" fill="none" xmlns="http://www.w3.org/2000/svg">
<g clip-path="url(#clip0_322_6547)">
<path d="M10.8874 0C5.86273 0 1.7748 4.08789 1.7748 9.11258C1.7748 11.2861 2.54012 13.284 3.81496 14.852L0 18.6669L1.33312 20L5.14809 16.185C6.71594 17.4598 8.71387 18.2252 10.8874 18.2252C15.9121 18.2252 20 14.1373 20 9.11258C20 4.08789 15.9121 0 10.8874 0ZM10.8874 16.3398C6.90234 16.3398 3.6602 13.0977 3.6602 9.11258C3.6602 5.1275 6.9023 1.88535 10.8874 1.88535C14.8725 1.88535 18.1146 5.1275 18.1146 9.11258C18.1146 13.0977 14.8725 16.3398 10.8874 16.3398Z" fill="#ABA3A9"/>
</g>
<defs>
<clipPath id="clip0_322_6547">
<rect width="20" height="20" fill="white"/>
</clipPath>
</defs>
</svg>
