<svg width="50" height="50" viewBox="0 0 50 50" fill="none" xmlns="http://www.w3.org/2000/svg">
<mask id="path-1-inside-1_476_4475" fill="white">
<path d="M50 25C50 38.8071 38.8071 50 25 50C11.1929 50 0 38.8071 0 25C0 11.1929 11.1929 0 25 0C38.8071 0 50 11.1929 50 25Z"/>
</mask>
<path d="M31.7071 25.7071C32.0976 25.3166 32.0976 24.6834 31.7071 24.2929L25.3431 17.9289C24.9526 17.5384 24.3195 17.5384 23.9289 17.9289C23.5384 18.3195 23.5384 18.9526 23.9289 19.3431L29.5858 25L23.9289 30.6569C23.5384 31.0474 23.5384 31.6805 23.9289 32.0711C24.3195 32.4616 24.9526 32.4616 25.3431 32.0711L31.7071 25.7071ZM16 26H31V24H16V26ZM48 25C48 37.7025 37.7025 48 25 48V52C39.9117 52 52 39.9117 52 25H48ZM25 48C12.2975 48 2 37.7025 2 25H-2C-2 39.9117 10.0883 52 25 52V48ZM2 25C2 12.2975 12.2975 2 25 2V-2C10.0883 -2 -2 10.0883 -2 25H2ZM25 2C37.7025 2 48 12.2975 48 25H52C52 10.0883 39.9117 -2 25 -2V2Z" fill="#FAFAFA" mask="url(#path-1-inside-1_476_4475)"/>
</svg>
