<svg width="20" height="20" viewBox="0 0 20 20" fill="none" xmlns="http://www.w3.org/2000/svg">
<path d="M10.6326 1.12969L12.7357 5.92656C12.8148 6.10709 12.9409 6.26307 13.1009 6.37823C13.2608 6.49339 13.4488 6.5635 13.6451 6.58125L18.7685 7.04063C19.3482 7.125 19.5794 7.83594 19.1591 8.24531L15.2997 11.4875C14.9872 11.75 14.8451 12.1625 14.931 12.5609L16.0529 17.8125C16.1513 18.3891 15.5466 18.8297 15.0279 18.5563L10.556 15.9375C10.3873 15.8385 10.1953 15.7863 9.99975 15.7863C9.80418 15.7863 9.61216 15.8385 9.4435 15.9375L4.97162 18.5547C4.45444 18.8266 3.84819 18.3875 3.94662 17.8109L5.0685 12.5594C5.15287 12.1609 5.01225 11.7484 4.69975 11.4859L0.83881 8.24688C0.42006 7.83906 0.65131 7.12656 1.22944 7.04219L6.35287 6.58281C6.54917 6.56507 6.73711 6.49496 6.89707 6.3798C7.05702 6.26464 7.18314 6.10865 7.26225 5.92813L9.36537 1.13125C9.62631 0.60625 10.3732 0.60625 10.6326 1.12969Z" fill="#FDD835"/>
<path d="M10.4792 6.21426L10.1229 2.67988C10.1089 2.48301 10.0683 2.14551 10.3839 2.14551C10.6339 2.14551 10.7698 2.66582 10.7698 2.66582L11.8386 5.50332C12.2417 6.58301 12.0761 6.95332 11.687 7.17207C11.2401 7.42207 10.5808 7.22676 10.4792 6.21426Z" fill="#FFFF8D"/>
<path d="M14.8866 11.1732L17.9522 8.78105C18.1038 8.65449 18.3772 8.45293 18.1584 8.22324C17.985 8.04199 17.5163 8.30293 17.5163 8.30293L14.8334 9.35137C14.0334 9.62793 13.5022 10.0373 13.4553 10.5529C13.3944 11.2404 14.0116 11.7701 14.8866 11.1732Z" fill="#F4B400"/>
</svg>
